Hubballi-Regular-Glyphs copy.ufo
<glyph name="quotedbl" format="1">
  <advance width="404"/>
  <unicode hex="0022"/>
  <outline>
    <contour>
      <point x="318" y="550" type="line" smooth="yes"/>
      <point x="320" y="558"/>
      <point x="322" y="568"/>
      <point x="322" y="570" type="curve" smooth="yes"/>
      <point x="322" y="585"/>
      <point x="310" y="595"/>
      <point x="297" y="595" type="curve" smooth="yes"/>
      <point x="286" y="595"/>
      <point x="275" y="587"/>
      <point x="273" y="576" type="curve" smooth="yes"/>
      <point x="236" y="413" type="line" smooth="yes"/>
      <point x="234" y="405"/>
      <point x="232" y="396"/>
      <point x="232" y="394" type="curve" smooth="yes"/>
      <point x="232" y="381"/>
      <point x="244" y="369"/>
      <point x="257" y="369" type="curve" smooth="yes"/>
      <point x="268" y="369"/>
      <point x="279" y="377"/>
      <point x="281" y="388" type="curve" smooth="yes"/>
    </contour>
    <contour>
      <point x="160" y="555" type="line" smooth="yes"/>
      <point x="160" y="557"/>
      <point x="163" y="568"/>
      <point x="163" y="570" type="curve" smooth="yes"/>
      <point x="163" y="583"/>
      <point x="151" y="595"/>
      <point x="138" y="595" type="curve" smooth="yes"/>
      <point x="127" y="595"/>
      <point x="117" y="587"/>
      <point x="114" y="576" type="curve" smooth="yes"/>
      <point x="77" y="413" type="line" smooth="yes"/>
      <point x="77" y="411"/>
      <point x="73" y="396"/>
      <point x="73" y="394" type="curve" smooth="yes"/>
      <point x="73" y="383"/>
      <point x="81" y="373"/>
      <point x="92" y="370" type="curve"/>
      <point x="94" y="370"/>
      <point x="96" y="369"/>
      <point x="98" y="369" type="curve" smooth="yes"/>
      <point x="109" y="369"/>
      <point x="119" y="377"/>
      <point x="122" y="388" type="curve" smooth="yes"/>
    </contour>
  </outline>
</glyph>
<glyph name="U" format="1">
  <advance width="616"/>
  <unicode hex="0055"/>
  <outline>
    <contour>
      <point x="136" y="510" type="line" smooth="yes"/>
      <point x="136" y="524"/>
      <point x="125" y="535"/>
      <point x="111" y="535" type="curve" smooth="yes"/>
      <point x="98" y="535"/>
      <point x="86" y="524"/>
      <point x="86" y="510" type="curve" smooth="yes"/>
      <point x="86" y="214" type="line" smooth="yes"/>
      <point x="86" y="71"/>
      <point x="176" y="-9"/>
      <point x="306" y="-9" type="curve" smooth="yes"/>
      <point x="449" y="-9"/>
      <point x="530" y="71"/>
      <point x="530" y="217" type="curve" smooth="yes"/>
      <point x="530" y="510" type="line" smooth="yes"/>
      <point x="530" y="524"/>
      <point x="519" y="535"/>
      <point x="505" y="535" type="curve" smooth="yes"/>
      <point x="492" y="535"/>
      <point x="480" y="524"/>
      <point x="480" y="510" type="curve" smooth="yes"/>
      <point x="480" y="217" type="line" smooth="yes"/>
      <point x="480" y="103"/>
      <point x="417" y="41"/>
      <point x="306" y="41" type="curve" smooth="yes"/>
      <point x="206" y="41"/>
      <point x="136" y="103"/>
      <point x="136" y="214" type="curve" smooth="yes"/>
    </contour>
  </outline>
</glyph>
<glyph name="asciitilde" format="1">
  <advance width="612"/>
  <unicode hex="007E"/>
  <outline>
    <contour>
      <point x="91" y="221" type="curve" smooth="yes"/>
      <point x="89" y="218"/>
      <point x="88" y="214"/>
      <point x="88" y="210" type="curve" smooth="yes"/>
      <point x="88" y="198"/>
      <point x="98" y="185"/>
      <point x="113" y="185" type="curve" smooth="yes"/>
      <point x="122" y="185"/>
      <point x="131" y="190"/>
      <point x="135" y="199" type="curve" smooth="yes"/>
      <point x="163" y="255"/>
      <point x="186" y="293"/>
      <point x="222" y="293" type="curve" smooth="yes"/>
      <point x="251" y="293"/>
      <point x="268" y="268"/>
      <point x="290" y="243" type="curve" smooth="yes"/>
      <point x="328" y="200"/>
      <point x="360" y="177"/>
      <point x="400" y="177" type="curve" smooth="yes"/>
      <point x="455" y="177"/>
      <point x="490" y="214"/>
      <point x="534" y="301" type="curve" smooth="yes"/>
      <point x="539" y="311"/>
      <point x="541" y="317"/>
      <point x="541" y="323" type="curve" smooth="yes"/>
      <point x="541" y="336"/>
      <point x="529" y="347"/>
      <point x="517" y="347" type="curve" smooth="yes"/>
      <point x="507" y="347"/>
      <point x="497" y="342"/>
      <point x="493" y="333" type="curve" smooth="yes"/>
      <point x="462" y="267"/>
      <point x="441" y="227"/>
      <point x="400" y="227" type="curve" smooth="yes"/>
      <point x="372" y="227"/>
      <point x="353" y="249"/>
      <point x="328" y="277" type="curve" smooth="yes"/>
      <point x="293" y="317"/>
      <point x="265" y="343"/>
      <point x="222" y="343" type="curve" smooth="yes"/>
      <point x="172" y="343"/>
      <point x="133" y="307"/>
    </contour>
  </outline>
</glyph>
<glyph name="logicalnot" format="1">
  <advance width="481"/>
  <unicode hex="00AC"/>
  <outline>
    <contour>
      <point x="372" y="119" type="curve" smooth="yes"/>
      <point x="386" y="119"/>
      <point x="397" y="131"/>
      <point x="397" y="144" type="curve" smooth="yes"/>
      <point x="397" y="251" type="line" smooth="yes"/>
      <point x="397" y="265"/>
      <point x="386" y="276"/>
      <point x="372" y="276" type="curve" smooth="yes"/>
      <point x="109" y="276" type="line" smooth="yes"/>
      <point x="96" y="276"/>
      <point x="84" y="265"/>
      <point x="84" y="251" type="curve" smooth="yes"/>
      <point x="84" y="238"/>
      <point x="96" y="226"/>
      <point x="109" y="226" type="curve" smooth="yes"/>
      <point x="347" y="226" type="line"/>
      <point x="347" y="144" type="line" smooth="yes"/>
      <point x="347" y="131"/>
      <point x="359" y="119"/>
    </contour>
  </outline>
</glyph>
<glyph name="Atilde" format="1">
  <advance width="580"/>
  <unicode hex="00C3"/>
  <outline>
    <contour>
      <point x="147" y="664" type="curve" smooth="yes"/>
      <point x="144" y="660"/>
      <point x="142" y="655"/>
      <point x="142" y="650" type="curve" smooth="yes"/>
      <point x="142" y="638"/>
      <point x="152" y="628"/>
      <point x="164" y="628" type="curve" smooth="yes"/>
      <point x="171" y="628"/>
      <point x="177" y="631"/>
      <point x="181" y="636" type="curve" smooth="yes"/>
      <point x="198" y="658"/>
      <point x="214" y="675"/>
      <point x="232" y="675" type="curve" smooth="yes"/>
      <point x="249" y="675"/>
      <point x="262" y="664"/>
      <point x="278" y="652" type="curve" smooth="yes"/>
      <point x="302" y="634"/>
      <point x="325" y="622"/>
      <point x="349" y="622" type="curve" smooth="yes"/>
      <point x="383" y="622"/>
      <point x="409" y="641"/>
      <point x="441" y="683" type="curve" smooth="yes"/>
      <point x="444" y="687"/>
      <point x="446" y="691"/>
      <point x="446" y="696" type="curve" smooth="yes"/>
      <point x="446" y="707"/>
      <point x="437" y="718"/>
      <point x="424" y="718" type="curve" smooth="yes"/>
      <point x="418" y="718"/>
      <point x="411" y="715"/>
      <point x="407" y="709" type="curve" smooth="yes"/>
      <point x="387" y="683"/>
      <point x="371" y="666"/>
      <point x="349" y="666" type="curve" smooth="yes"/>
      <point x="333" y="666"/>
      <point x="320" y="676"/>
      <point x="304" y="688" type="curve" smooth="yes"/>
      <point x="280" y="706"/>
      <point x="257" y="719"/>
      <point x="232" y="719" type="curve" smooth="yes"/>
      <point x="204" y="719"/>
      <point x="176" y="700"/>
    </contour>
    <contour>
      <point x="505" y="0" type="curve" smooth="yes"/>
      <point x="518" y="0"/>
      <point x="530" y="12"/>
      <point x="530" y="25" type="curve" smooth="yes"/>
      <point x="530" y="28"/>
      <point x="529" y="33"/>
      <point x="519" y="57" type="curve" smooth="yes"/>
      <point x="480" y="156"/>
      <point x="382" y="375"/>
      <point x="310" y="530" type="curve" smooth="yes"/>
      <point x="306" y="539"/>
      <point x="296" y="544"/>
      <point x="286" y="544" type="curve" smooth="yes"/>
      <point x="282" y="544" type="line" smooth="yes"/>
      <point x="272" y="544"/>
      <point x="262" y="538"/>
      <point x="258" y="529" type="curve" smooth="yes"/>
      <point x="189" y="376"/>
      <point x="103" y="178"/>
      <point x="58" y="57" type="curve" smooth="yes"/>
      <point x="49" y="34"/>
      <point x="48" y="30"/>
      <point x="48" y="26" type="curve" smooth="yes"/>
      <point x="48" y="11"/>
      <point x="60" y="0"/>
      <point x="72" y="0" type="curve" smooth="yes"/>
      <point x="82" y="0"/>
      <point x="93" y="6"/>
      <point x="97" y="17" type="curve" smooth="yes"/>
      <point x="110" y="53"/>
      <point x="127" y="97"/>
      <point x="146" y="145" type="curve"/>
      <point x="428" y="145" type="line"/>
      <point x="449" y="97"/>
      <point x="468" y="52"/>
      <point x="482" y="16" type="curve" smooth="yes"/>
      <point x="486" y="6"/>
      <point x="495" y="0"/>
    </contour>
    <contour>
      <point x="407" y="195" type="curve"/>
      <point x="167" y="195" type="line"/>
      <point x="204" y="284"/>
      <point x="247" y="380"/>
      <point x="284" y="465" type="curve"/>
      <point x="324" y="381"/>
      <point x="368" y="284"/>
    </contour>
  </outline>
</glyph>
<glyph name="omacron" format="1">
  <advance width="495"/>
  <unicode hex="014D"/>
  <outline>
    <contour>
      <point x="348" y="517" type="line" smooth="yes"/>
      <point x="360" y="517"/>
      <point x="370" y="527"/>
      <point x="370" y="539" type="curve" smooth="yes"/>
      <point x="370" y="551"/>
      <point x="360" y="561"/>
      <point x="348" y="561" type="curve" smooth="yes"/>
      <point x="147" y="561" type="line" smooth="yes"/>
      <point x="135" y="561"/>
      <point x="125" y="551"/>
      <point x="125" y="539" type="curve" smooth="yes"/>
      <point x="125" y="527"/>
      <point x="135" y="517"/>
      <point x="147" y="517" type="curve" smooth="yes"/>
    </contour>
    <contour>
      <point x="247" y="396" type="curve" smooth="yes"/>
      <point x="124" y="396"/>
      <point x="48" y="304"/>
      <point x="48" y="193" type="curve" smooth="yes"/>
      <point x="48" y="82"/>
      <point x="126" y="-4"/>
      <point x="247" y="-4" type="curve" smooth="yes"/>
      <point x="369" y="-4"/>
      <point x="446" y="81"/>
      <point x="446" y="191" type="curve" smooth="yes"/>
      <point x="446" y="304"/>
      <point x="369" y="396"/>
    </contour>
    <contour>
      <point x="247" y="346" type="curve" smooth="yes"/>
      <point x="339" y="346"/>
      <point x="396" y="276"/>
      <point x="396" y="191" type="curve" smooth="yes"/>
      <point x="396" y="109"/>
      <point x="337" y="46"/>
      <point x="247" y="46" type="curve" smooth="yes"/>
      <point x="156" y="46"/>
      <point x="98" y="110"/>
      <point x="98" y="193" type="curve" smooth="yes"/>
      <point x="98" y="276"/>
      <point x="154" y="346"/>
    </contour>
  </outline>
</glyph>
<glyph name="rcommaaccent" format="1">
  <advance width="348"/>
  <unicode hex="0157"/>
  <outline>
    <contour>
      <point x="110" y="0" type="curve" smooth="yes"/>
      <point x="124" y="0"/>
      <point x="135" y="11"/>
      <point x="135" y="25" type="curve" smooth="yes"/>
      <point x="135" y="227" type="line"/>
      <point x="177" y="291"/>
      <point x="227" y="332"/>
      <point x="305" y="342" type="curve" smooth="yes"/>
      <point x="318" y="344"/>
      <point x="327" y="355"/>
      <point x="327" y="368" type="curve" smooth="yes"/>
      <point x="327" y="381"/>
      <point x="317" y="391"/>
      <point x="303" y="391" type="curve" smooth="yes"/>
      <point x="248" y="391"/>
      <point x="187" y="363"/>
      <point x="135" y="308" type="curve"/>
      <point x="135" y="367" type="line" smooth="yes"/>
      <point x="135" y="381"/>
      <point x="124" y="392"/>
      <point x="110" y="392" type="curve" smooth="yes"/>
      <point x="97" y="392"/>
      <point x="85" y="381"/>
      <point x="85" y="367" type="curve" smooth="yes"/>
      <point x="85" y="25" type="line" smooth="yes"/>
      <point x="85" y="12"/>
      <point x="97" y="0"/>
    </contour>
    <contour>
      <point x="127" y="-91" type="curve" smooth="yes"/>
      <point x="124" y="-84"/>
      <point x="116" y="-80"/>
      <point x="108" y="-80" type="curve" smooth="yes"/>
      <point x="95" y="-80"/>
      <point x="86" y="-89"/>
      <point x="86" y="-102" type="curve" smooth="yes"/>
      <point x="86" y="-106"/>
      <point x="87" y="-109"/>
      <point x="89" y="-113" type="curve" smooth="yes"/>
      <point x="93" y="-120"/>
      <point x="95" y="-130"/>
      <point x="95" y="-139" type="curve" smooth="yes"/>
      <point x="95" y="-170"/>
      <point x="68" y="-196"/>
      <point x="31" y="-213" type="curve" smooth="yes"/>
      <point x="23" y="-217"/>
      <point x="18" y="-225"/>
      <point x="18" y="-233" type="curve" smooth="yes"/>
      <point x="18" y="-245"/>
      <point x="29" y="-255"/>
      <point x="40" y="-255" type="curve" smooth="yes"/>
      <point x="43" y="-255"/>
      <point x="46" y="-254"/>
      <point x="49" y="-253" type="curve" smooth="yes"/>
      <point x="106" y="-226"/>
      <point x="139" y="-184"/>
      <point x="139" y="-139" type="curve" smooth="yes"/>
      <point x="139" y="-122"/>
      <point x="135" y="-106"/>
    </contour>
  </outline>
</glyph>
<glyph name="tcedilla" format="1">
  <advance width="354"/>
  <unicode hex="0163"/>
  <outline>
    <contour>
      <point x="279" y="0" type="curve" smooth="yes"/>
      <point x="292" y="0"/>
      <point x="304" y="11"/>
      <point x="304" y="25" type="curve" smooth="yes"/>
      <point x="304" y="38"/>
      <point x="293" y="50"/>
      <point x="279" y="50" type="curve" smooth="yes"/>
      <point x="200" y="52"/>
      <point x="159" y="81"/>
      <point x="159" y="142" type="curve" smooth="yes"/>
      <point x="159" y="342" type="line"/>
      <point x="292" y="342" type="line" smooth="yes"/>
      <point x="306" y="342"/>
      <point x="317" y="354"/>
      <point x="317" y="367" type="curve" smooth="yes"/>
      <point x="317" y="381"/>
      <point x="306" y="392"/>
      <point x="292" y="392" type="curve" smooth="yes"/>
      <point x="159" y="392" type="line"/>
      <point x="159" y="493" type="line" smooth="yes"/>
      <point x="159" y="507"/>
      <point x="148" y="518"/>
      <point x="134" y="518" type="curve" smooth="yes"/>
      <point x="121" y="518"/>
      <point x="109" y="507"/>
      <point x="109" y="493" type="curve" smooth="yes"/>
      <point x="109" y="392" type="line"/>
      <point x="46" y="392" type="line" smooth="yes"/>
      <point x="33" y="392"/>
      <point x="21" y="381"/>
      <point x="21" y="367" type="curve" smooth="yes"/>
      <point x="21" y="354"/>
      <point x="33" y="342"/>
      <point x="46" y="342" type="curve" smooth="yes"/>
      <point x="109" y="342" type="line"/>
      <point x="109" y="142" type="line" smooth="yes"/>
      <point x="109" y="55"/>
      <point x="156" y="2"/>
    </contour>
    <contour>
      <point x="221" y="-91" type="curve" smooth="yes"/>
      <point x="218" y="-84"/>
      <point x="210" y="-80"/>
      <point x="202" y="-80" type="curve" smooth="yes"/>
      <point x="189" y="-80"/>
      <point x="180" y="-89"/>
      <point x="180" y="-102" type="curve" smooth="yes"/>
      <point x="180" y="-106"/>
      <point x="181" y="-109"/>
      <point x="183" y="-113" type="curve" smooth="yes"/>
      <point x="187" y="-120"/>
      <point x="189" y="-130"/>
      <point x="189" y="-139" type="curve" smooth="yes"/>
      <point x="189" y="-170"/>
      <point x="162" y="-196"/>
      <point x="125" y="-213" type="curve" smooth="yes"/>
      <point x="117" y="-217"/>
      <point x="112" y="-225"/>
      <point x="112" y="-233" type="curve" smooth="yes"/>
      <point x="112" y="-245"/>
      <point x="123" y="-255"/>
      <point x="134" y="-255" type="curve" smooth="yes"/>
      <point x="137" y="-255"/>
      <point x="140" y="-254"/>
      <point x="143" y="-253" type="curve" smooth="yes"/>
      <point x="200" y="-226"/>
      <point x="233" y="-184"/>
      <point x="233" y="-139" type="curve" smooth="yes"/>
      <point x="233" y="-122"/>
      <point x="229" y="-106"/>
    </contour>
  </outline>
</glyph>
<glyph name="acutecomb" format="1">
  <advance width="0"/>
  <unicode hex="0301"/>
  <outline>
    <contour>
      <point x="88" y="584" type="curve" smooth="yes"/>
      <point x="92" y="588"/>
      <point x="94" y="594"/>
      <point x="94" y="599" type="curve" smooth="yes"/>
      <point x="94" y="610"/>
      <point x="83" y="621"/>
      <point x="72" y="621" type="curve" smooth="yes"/>
      <point x="66" y="621"/>
      <point x="60" y="619"/>
      <point x="56" y="614" type="curve" smooth="yes"/>
      <point x="27" y="583"/>
      <point x="0" y="550"/>
      <point x="-26" y="519" type="curve" smooth="yes"/>
      <point x="-29" y="515"/>
      <point x="-31" y="510"/>
      <point x="-31" y="505" type="curve" smooth="yes"/>
      <point x="-31" y="495"/>
      <point x="-21" y="483"/>
      <point x="-9" y="483" type="curve" smooth="yes"/>
      <point x="-3" y="483"/>
      <point x="4" y="486"/>
      <point x="8" y="491" type="curve" smooth="yes"/>
      <point x="34" y="522"/>
      <point x="61" y="553"/>
    </contour>
  </outline>
</glyph>
<glyph name="u-kannada" format="1">
  <advance width="1052"/>
  <unicode hex="0C89"/>
  <outline>
    <contour>
      <point x="232" y="299" type="curve" smooth="yes"/>
      <point x="198" y="299"/>
      <point x="168" y="318"/>
      <point x="143" y="349" type="curve"/>
      <point x="161" y="395"/>
      <point x="192" y="425"/>
      <point x="230" y="425" type="curve" smooth="yes"/>
      <point x="273" y="425"/>
      <point x="299" y="396"/>
      <point x="299" y="359" type="curve" smooth="yes"/>
      <point x="299" y="322"/>
      <point x="269" y="299"/>
    </contour>
    <contour>
      <point x="985" y="175" type="curve" smooth="yes"/>
      <point x="985" y="278"/>
      <point x="937" y="371"/>
      <point x="871" y="439" type="curve" smooth="yes"/>
      <point x="866" y="444"/>
      <point x="860" y="446"/>
      <point x="854" y="446" type="curve" smooth="yes"/>
      <point x="841" y="446"/>
      <point x="831" y="436"/>
      <point x="831" y="423" type="curve" smooth="yes"/>
      <point x="831" y="417"/>
      <point x="833" y="411"/>
      <point x="837" y="407" type="curve" smooth="yes"/>
      <point x="895" y="347"/>
      <point x="939" y="266"/>
      <point x="939" y="175" type="curve" smooth="yes"/>
      <point x="939" y="91"/>
      <point x="887" y="46"/>
      <point x="829" y="46" type="curve" smooth="yes"/>
      <point x="790" y="46"/>
      <point x="760" y="58"/>
      <point x="739" y="78" type="curve" smooth="yes"/>
      <point x="716" y="101"/>
      <point x="696" y="141"/>
      <point x="684" y="249" type="curve" smooth="yes"/>
      <point x="669" y="386"/>
      <point x="628" y="434"/>
      <point x="557" y="434" type="curve" smooth="yes"/>
      <point x="499" y="434"/>
      <point x="454" y="390"/>
      <point x="427" y="264" type="curve" smooth="yes"/>
      <point x="402" y="154"/>
      <point x="375" y="104"/>
      <point x="350" y="78" type="curve" smooth="yes"/>
      <point x="329" y="57"/>
      <point x="298" y="46"/>
      <point x="267" y="46" type="curve" smooth="yes"/>
      <point x="185" y="46"/>
      <point x="123" y="126"/>
      <point x="123" y="236" type="curve" smooth="yes"/>
      <point x="123" y="258"/>
      <point x="125" y="278"/>
      <point x="128" y="298" type="curve"/>
      <point x="160" y="268"/>
      <point x="195" y="253"/>
      <point x="232" y="253" type="curve" smooth="yes"/>
      <point x="297" y="253"/>
      <point x="345" y="296"/>
      <point x="345" y="359" type="curve" smooth="yes"/>
      <point x="345" y="420"/>
      <point x="303" y="471"/>
      <point x="230" y="471" type="curve" smooth="yes"/>
      <point x="150" y="471"/>
      <point x="77" y="385"/>
      <point x="77" y="236" type="curve" smooth="yes"/>
      <point x="77" y="92"/>
      <point x="165" y="0"/>
      <point x="267" y="0" type="curve" smooth="yes"/>
      <point x="310" y="0"/>
      <point x="353" y="17"/>
      <point x="382" y="46" type="curve" smooth="yes"/>
      <point x="411" y="74"/>
      <point x="444" y="130"/>
      <point x="471" y="254" type="curve" smooth="yes"/>
      <point x="490" y="336"/>
      <point x="513" y="388"/>
      <point x="557" y="388" type="curve" smooth="yes"/>
      <point x="612" y="388"/>
      <point x="629" y="332"/>
      <point x="638" y="245" type="curve" smooth="yes"/>
      <point x="652" y="117"/>
      <point x="680" y="73"/>
      <point x="707" y="46" type="curve" smooth="yes"/>
      <point x="734" y="18"/>
      <point x="776" y="0"/>
      <point x="829" y="0" type="curve" smooth="yes"/>
      <point x="907" y="0"/>
      <point x="985" y="57"/>
    </contour>
  </outline>
</glyph>
<glyph name="uuMatra-kannada" format="1">
  <advance width="607"/>
  <unicode hex="0CC2"/>
  <outline>
    <contour>
      <point x="407" y="42" type="curve" smooth="yes"/>
      <point x="366" y="42"/>
      <point x="341" y="72"/>
      <point x="341" y="106" type="curve" smooth="yes"/>
      <point x="341" y="149"/>
      <point x="371" y="183"/>
      <point x="428" y="183" type="curve" smooth="yes"/>
      <point x="451" y="183"/>
      <point x="474" y="178"/>
      <point x="494" y="172" type="curve"/>
      <point x="494" y="167" type="line" smooth="yes"/>
      <point x="494" y="93"/>
      <point x="460" y="42"/>
    </contour>
    <contour>
      <point x="407" y="-4" type="curve" smooth="yes"/>
      <point x="480" y="-4"/>
      <point x="540" y="55"/>
      <point x="540" y="167" type="curve" smooth="yes"/>
      <point x="540" y="354"/>
      <point x="401" y="456"/>
      <point x="291" y="456" type="curve" smooth="yes"/>
      <point x="182" y="456"/>
      <point x="126" y="366"/>
      <point x="126" y="288" type="curve" smooth="yes"/>
      <point x="126" y="228"/>
      <point x="151" y="178"/>
      <point x="151" y="125" type="curve" smooth="yes"/>
      <point x="151" y="78"/>
      <point x="126" y="46"/>
      <point x="73" y="46" type="curve" smooth="yes"/>
      <point x="25" y="46"/>
      <point x="-20" y="81"/>
      <point x="-61" y="144" type="curve" smooth="yes"/>
      <point x="-65" y="150"/>
      <point x="-71" y="155"/>
      <point x="-80" y="155" type="curve" smooth="yes"/>
      <point x="-96" y="155"/>
      <point x="-103" y="143"/>
      <point x="-103" y="131" type="curve" smooth="yes"/>
      <point x="-103" y="127"/>
      <point x="-102" y="122"/>
      <point x="-99" y="118" type="curve" smooth="yes"/>
      <point x="-46" y="37"/>
      <point x="13" y="0"/>
      <point x="73" y="0" type="curve" smooth="yes"/>
      <point x="156" y="0"/>
      <point x="197" y="50"/>
      <point x="197" y="125" type="curve" smooth="yes"/>
      <point x="197" y="178"/>
      <point x="172" y="228"/>
      <point x="172" y="288" type="curve" smooth="yes"/>
      <point x="172" y="344"/>
      <point x="212" y="410"/>
      <point x="291" y="410" type="curve" smooth="yes"/>
      <point x="371" y="410"/>
      <point x="466" y="341"/>
      <point x="489" y="221" type="curve"/>
      <point x="469" y="226"/>
      <point x="448" y="229"/>
      <point x="428" y="229" type="curve" smooth="yes"/>
      <point x="337" y="229"/>
      <point x="295" y="171"/>
      <point x="295" y="106" type="curve" smooth="yes"/>
      <point x="295" y="48"/>
      <point x="336" y="-4"/>
    </contour>
  </outline>
</glyph>
<glyph name="auMatra-kannada" format="1">
  <advance width="332"/>
  <unicode hex="0CCC"/>
  <outline>
    <contour>
      <point x="134" y="201" type="curve" smooth="yes"/>
      <point x="207" y="201"/>
      <point x="267" y="259"/>
      <point x="267" y="367" type="curve" smooth="yes"/>
      <point x="267" y="545"/>
      <point x="153" y="627"/>
      <point x="-7" y="627" type="curve" smooth="yes"/>
      <point x="-231" y="627" type="line" smooth="yes"/>
      <point x="-243" y="627"/>
      <point x="-254" y="616"/>
      <point x="-254" y="604" type="curve" smooth="yes"/>
      <point x="-254" y="592"/>
      <point x="-243" y="581"/>
      <point x="-231" y="581" type="curve" smooth="yes"/>
      <point x="-59" y="581" type="line"/>
      <point x="-65" y="499"/>
      <point x="-116" y="456"/>
      <point x="-195" y="456" type="curve" smooth="yes"/>
      <point x="-207" y="456"/>
      <point x="-218" y="445"/>
      <point x="-218" y="433" type="curve" smooth="yes"/>
      <point x="-218" y="421"/>
      <point x="-207" y="410"/>
      <point x="-195" y="410" type="curve" smooth="yes"/>
      <point x="-88" y="410"/>
      <point x="-19" y="467"/>
      <point x="-13" y="581" type="curve"/>
      <point x="-7" y="581" type="line" smooth="yes"/>
      <point x="107" y="581"/>
      <point x="194" y="532"/>
      <point x="216" y="424" type="curve"/>
      <point x="196" y="428"/>
      <point x="175" y="431"/>
      <point x="155" y="431" type="curve" smooth="yes"/>
      <point x="64" y="431"/>
      <point x="22" y="373"/>
      <point x="22" y="308" type="curve" smooth="yes"/>
      <point x="22" y="250"/>
      <point x="65" y="201"/>
    </contour>
    <contour>
      <point x="134" y="247" type="curve" smooth="yes"/>
      <point x="95" y="247"/>
      <point x="68" y="274"/>
      <point x="68" y="308" type="curve" smooth="yes"/>
      <point x="68" y="351"/>
      <point x="98" y="385"/>
      <point x="155" y="385" type="curve" smooth="yes"/>
      <point x="178" y="385"/>
      <point x="201" y="380"/>
      <point x="221" y="374" type="curve"/>
      <point x="221" y="367"/>
      <point x="221" y="367"/>
      <point x="221" y="367" type="curve"/>
      <point x="221" y="297"/>
      <point x="187" y="247"/>
    </contour>
  </outline>
</glyph>
<glyph name="quotedblleft" format="1">
  <advance width="406"/>
  <unicode hex="201C"/>
  <outline>
    <contour>
      <point x="297" y="379" type="curve" smooth="yes"/>
      <point x="302" y="372"/>
      <point x="309" y="369"/>
      <point x="317" y="369" type="curve" smooth="yes"/>
      <point x="331" y="369"/>
      <point x="342" y="381"/>
      <point x="342" y="394" type="curve" smooth="yes"/>
      <point x="342" y="399"/>
      <point x="340" y="405"/>
      <point x="337" y="409" type="curve" smooth="yes"/>
      <point x="314" y="439"/>
      <point x="300" y="478"/>
      <point x="300" y="512" type="curve" smooth="yes"/>
      <point x="300" y="547"/>
      <point x="306" y="561"/>
      <point x="306" y="569" type="curve" smooth="yes"/>
      <point x="306" y="582"/>
      <point x="293" y="594"/>
      <point x="281" y="594" type="curve" smooth="yes"/>
      <point x="270" y="594"/>
      <point x="260" y="586"/>
      <point x="257" y="575" type="curve" smooth="yes"/>
      <point x="252" y="557"/>
      <point x="250" y="539"/>
      <point x="250" y="512" type="curve" smooth="yes"/>
      <point x="250" y="468"/>
      <point x="268" y="417"/>
    </contour>
    <contour>
      <point x="137" y="379" type="curve" smooth="yes"/>
      <point x="142" y="372"/>
      <point x="149" y="369"/>
      <point x="157" y="369" type="curve" smooth="yes"/>
      <point x="171" y="369"/>
      <point x="182" y="381"/>
      <point x="182" y="394" type="curve" smooth="yes"/>
      <point x="182" y="399"/>
      <point x="180" y="405"/>
      <point x="177" y="409" type="curve" smooth="yes"/>
      <point x="154" y="439"/>
      <point x="140" y="478"/>
      <point x="140" y="512" type="curve" smooth="yes"/>
      <point x="140" y="545"/>
      <point x="146" y="561"/>
      <point x="146" y="569" type="curve" smooth="yes"/>
      <point x="146" y="582"/>
      <point x="133" y="594"/>
      <point x="121" y="594" type="curve" smooth="yes"/>
      <point x="110" y="594"/>
      <point x="100" y="586"/>
      <point x="97" y="575" type="curve" smooth="yes"/>
      <point x="92" y="557"/>
      <point x="90" y="539"/>
      <point x="90" y="512" type="curve" smooth="yes"/>
      <point x="90" y="468"/>
      <point x="108" y="417"/>
    </contour>
  </outline>
</glyph>
<glyph name="caroncomb.cap" format="1">
  <advance width="0"/>
  <outline>
    <contour>
      <point x="3" y="633"/>
      <point x="8" y="635"/>
      <point x="12" y="638" type="curve" smooth="yes"/>
      <point x="45" y="662"/>
      <point x="80" y="686"/>
      <point x="108" y="707" type="curve" smooth="yes"/>
      <point x="114" y="712"/>
      <point x="117" y="719"/>
      <point x="117" y="726" type="curve" smooth="yes"/>
      <point x="117" y="737"/>
      <point x="107" y="747"/>
      <point x="94" y="747" type="curve" smooth="yes"/>
      <point x="90" y="747"/>
      <point x="86" y="746"/>
      <point x="82" y="743" type="curve" smooth="yes"/>
      <point x="57" y="724"/>
      <point x="26" y="703"/>
      <point x="-5" y="681" type="curve"/>
      <point x="-35" y="703"/>
      <point x="-66" y="724"/>
      <point x="-91" y="743" type="curve" smooth="yes"/>
      <point x="-95" y="746"/>
      <point x="-99" y="747"/>
      <point x="-103" y="747" type="curve" smooth="yes"/>
      <point x="-117" y="747"/>
      <point x="-126" y="737"/>
      <point x="-126" y="726" type="curve" smooth="yes"/>
      <point x="-126" y="719"/>
      <point x="-123" y="712"/>
      <point x="-117" y="707" type="curve" smooth="yes"/>
      <point x="-89" y="686"/>
      <point x="-55" y="662"/>
      <point x="-21" y="638" type="curve" smooth="yes"/>
      <point x="-17" y="635"/>
      <point x="-12" y="633"/>
      <point x="-6" y="633" type="curve" smooth="yes"/>
      <point x="-2" y="633" type="line" smooth="yes"/>
    </contour>
  </outline>
</glyph>
<glyph name="dotaccentcomb.cap" format="1">
  <advance width="0"/>
  <outline>
    <contour>
      <point x="-5" y="739" type="curve" smooth="yes"/>
      <point x="-28" y="739"/>
      <point x="-48" y="718"/>
      <point x="-48" y="689" type="curve" smooth="yes"/>
      <point x="-48" y="662"/>
      <point x="-29" y="642"/>
      <point x="-5" y="642" type="curve" smooth="yes"/>
      <point x="16" y="642"/>
      <point x="35" y="660"/>
      <point x="35" y="689" type="curve" smooth="yes"/>
      <point x="35" y="720"/>
      <point x="15" y="739"/>
    </contour>
  </outline>
</glyph>
<glyph name="ga-kannada.below.following" format="1">
  <advance width="460"/>
  <outline>
    <contour>
      <point x="480" y="-341" type="curve" smooth="yes"/>
      <point x="476" y="-350"/>
      <point x="476" y="-353"/>
      <point x="476" y="-356" type="curve" smooth="yes"/>
      <point x="476" y="-366"/>
      <point x="484" y="-377"/>
      <point x="497" y="-377" type="curve" smooth="yes"/>
      <point x="505" y="-377"/>
      <point x="514" y="-372"/>
      <point x="517" y="-363" type="curve" smooth="yes"/>
      <point x="525" y="-339"/>
      <point x="536" y="-308"/>
      <point x="536" y="-274" type="curve" smooth="yes"/>
      <point x="536" y="-179"/>
      <point x="465" y="-100"/>
      <point x="374" y="-100" type="curve" smooth="yes"/>
      <point x="283" y="-100"/>
      <point x="211" y="-181"/>
      <point x="211" y="-274" type="curve" smooth="yes"/>
      <point x="211" y="-307"/>
      <point x="220" y="-339"/>
      <point x="231" y="-364" type="curve" smooth="yes"/>
      <point x="234" y="-372"/>
      <point x="242" y="-377"/>
      <point x="250" y="-377" type="curve" smooth="yes"/>
      <point x="261" y="-377"/>
      <point x="271" y="-367"/>
      <point x="271" y="-356" type="curve" smooth="yes"/>
      <point x="271" y="-353"/>
      <point x="269" y="-347"/>
      <point x="268" y="-344" type="curve" smooth="yes"/>
      <point x="259" y="-323"/>
      <point x="253" y="-301"/>
      <point x="253" y="-274" type="curve" smooth="yes"/>
      <point x="253" y="-205"/>
      <point x="305" y="-142"/>
      <point x="374" y="-142" type="curve" smooth="yes"/>
      <point x="443" y="-142"/>
      <point x="494" y="-203"/>
      <point x="494" y="-274" type="curve" smooth="yes"/>
      <point x="494" y="-302"/>
      <point x="485" y="-328"/>
    </contour>
  </outline>
</glyph>
<glyph name="ka-kannada.below" format="1">
  <advance width="119"/>
  <outline>
    <contour>
      <point x="43" y="-357" type="curve" smooth="yes"/>
      <point x="148" y="-357"/>
      <point x="178" y="-298"/>
      <point x="178" y="-248" type="curve" smooth="yes"/>
      <point x="178" y="-223"/>
      <point x="169" y="-199"/>
      <point x="152" y="-180" type="curve"/>
      <point x="218" y="-180" type="line" smooth="yes"/>
      <point x="229" y="-180"/>
      <point x="239" y="-170"/>
      <point x="239" y="-159" type="curve" smooth="yes"/>
      <point x="239" y="-148"/>
      <point x="229" y="-138"/>
      <point x="218" y="-138" type="curve" smooth="yes"/>
      <point x="67" y="-138" type="line"/>
      <point x="88" y="-100"/>
      <point x="95" y="-69"/>
      <point x="95" y="-30" type="curve" smooth="yes"/>
      <point x="95" y="-5"/>
      <point x="90" y="24"/>
      <point x="81" y="51" type="curve" smooth="yes"/>
      <point x="78" y="59"/>
      <point x="69" y="65"/>
      <point x="61" y="65" type="curve" smooth="yes"/>
      <point x="47" y="65"/>
      <point x="40" y="54"/>
      <point x="40" y="44" type="curve" smooth="yes"/>
      <point x="40" y="34"/>
      <point x="53" y="11"/>
      <point x="53" y="-30" type="curve" smooth="yes"/>
      <point x="53" y="-69"/>
      <point x="44" y="-96"/>
      <point x="18" y="-138" type="curve"/>
      <point x="-132" y="-138" type="line" smooth="yes"/>
      <point x="-143" y="-138"/>
      <point x="-153" y="-148"/>
      <point x="-153" y="-159" type="curve" smooth="yes"/>
      <point x="-153" y="-170"/>
      <point x="-143" y="-180"/>
      <point x="-132" y="-180" type="curve" smooth="yes"/>
      <point x="-66" y="-180" type="line"/>
      <point x="-83" y="-199"/>
      <point x="-92" y="-223"/>
      <point x="-92" y="-248" type="curve" smooth="yes"/>
      <point x="-92" y="-298"/>
      <point x="-61" y="-357"/>
    </contour>
    <contour>
      <point x="43" y="-315" type="curve" smooth="yes"/>
      <point x="-21" y="-315"/>
      <point x="-50" y="-282"/>
      <point x="-50" y="-248" type="curve" smooth="yes"/>
      <point x="-50" y="-214"/>
      <point x="-21" y="-186"/>
      <point x="22" y="-180" type="curve"/>
      <point x="66" y="-180" type="line"/>
      <point x="108" y="-186"/>
      <point x="136" y="-214"/>
      <point x="136" y="-248" type="curve" smooth="yes"/>
      <point x="136" y="-282"/>
      <point x="108" y="-315"/>
    </contour>
  </outline>
</glyph>
<glyph name="knCU" format="1">
  <advance width="1064"/>
  <outline>
    <contour>
      <point x="835" y="0" type="curve" smooth="yes"/>
      <point x="941" y="0"/>
      <point x="997" y="69"/>
      <point x="997" y="169" type="curve" smooth="yes"/>
      <point x="997" y="255"/>
      <point x="949" y="357"/>
      <point x="885" y="427" type="curve" smooth="yes"/>
      <point x="881" y="432"/>
      <point x="875" y="435"/>
      <point x="868" y="435" type="curve" smooth="yes"/>
      <point x="855" y="435"/>
      <point x="845" y="425"/>
      <point x="845" y="412" type="curve" smooth="yes"/>
      <point x="845" y="407"/>
      <point x="847" y="401"/>
      <point x="851" y="397" type="curve" smooth="yes"/>
      <point x="907" y="335"/>
      <point x="951" y="245"/>
      <point x="951" y="169" type="curve" smooth="yes"/>
      <point x="951" y="97"/>
      <point x="913" y="46"/>
      <point x="835" y="46" type="curve" smooth="yes"/>
      <point x="772" y="46"/>
      <point x="728" y="78"/>
      <point x="684" y="150" type="curve" smooth="yes"/>
      <point x="682" y="153" type="line"/>
      <point x="678" y="190"/>
      <point x="663" y="227"/>
      <point x="631" y="263" type="curve"/>
      <point x="715" y="263" type="line" smooth="yes"/>
      <point x="727" y="263"/>
      <point x="738" y="274"/>
      <point x="738" y="286" type="curve" smooth="yes"/>
      <point x="738" y="298"/>
      <point x="727" y="309"/>
      <point x="715" y="309" type="curve" smooth="yes"/>
      <point x="613" y="309" type="line"/>
      <point x="613" y="412" type="line"/>
      <point x="677" y="418"/>
      <point x="718" y="448"/>
      <point x="750" y="499" type="curve" smooth="yes"/>
      <point x="752" y="503"/>
      <point x="753" y="507"/>
      <point x="753" y="511" type="curve" smooth="yes"/>
      <point x="753" y="524"/>
      <point x="744" y="534"/>
      <point x="730" y="534" type="curve" smooth="yes"/>
      <point x="722" y="534"/>
      <point x="715" y="530"/>
      <point x="710" y="523" type="curve" smooth="yes"/>
      <point x="682" y="478"/>
      <point x="645" y="456"/>
      <point x="582" y="456" type="curve" smooth="yes"/>
      <point x="440" y="456" type="line" smooth="yes"/>
      <point x="428" y="456"/>
      <point x="417" y="445"/>
      <point x="417" y="433" type="curve" smooth="yes"/>
      <point x="417" y="421"/>
      <point x="428" y="410"/>
      <point x="440" y="410" type="curve" smooth="yes"/>
      <point x="567" y="410" type="line"/>
      <point x="567" y="309" type="line"/>
      <point x="438" y="309" type="line" smooth="yes"/>
      <point x="426" y="309"/>
      <point x="415" y="298"/>
      <point x="415" y="286" type="curve" smooth="yes"/>
      <point x="415" y="274"/>
      <point x="426" y="263"/>
      <point x="438" y="263" type="curve" smooth="yes"/>
      <point x="565" y="263" type="line"/>
      <point x="615" y="223"/>
      <point x="637" y="177"/>
      <point x="637" y="133" type="curve" smooth="yes"/>
      <point x="637" y="87"/>
      <point x="602" y="46"/>
      <point x="545" y="46" type="curve" smooth="yes"/>
      <point x="480" y="46"/>
      <point x="439" y="79"/>
      <point x="403" y="136" type="curve" smooth="yes"/>
      <point x="399" y="142"/>
      <point x="391" y="147"/>
      <point x="384" y="147" type="curve" smooth="yes"/>
      <point x="379" y="147" type="line" smooth="yes"/>
      <point x="372" y="147"/>
      <point x="363" y="142"/>
      <point x="359" y="136" type="curve" smooth="yes"/>
      <point x="320" y="73"/>
      <point x="281" y="46"/>
      <point x="222" y="46" type="curve" smooth="yes"/>
      <point x="165" y="46"/>
      <point x="133" y="81"/>
      <point x="133" y="125" type="curve" smooth="yes"/>
      <point x="133" y="167"/>
      <point x="162" y="202"/>
      <point x="203" y="235" type="curve" smooth="yes"/>
      <point x="269" y="288"/>
      <point x="291" y="327"/>
      <point x="291" y="371" type="curve" smooth="yes"/>
      <point x="291" y="426"/>
      <point x="251" y="471"/>
      <point x="183" y="471" type="curve" smooth="yes"/>
      <point x="140" y="471"/>
      <point x="105" y="451"/>
      <point x="75" y="417" type="curve" smooth="yes"/>
      <point x="71" y="413"/>
      <point x="69" y="407"/>
      <point x="69" y="402" type="curve" smooth="yes"/>
      <point x="69" y="388"/>
      <point x="80" y="379"/>
      <point x="92" y="379" type="curve" smooth="yes"/>
      <point x="99" y="379"/>
      <point x="105" y="382"/>
      <point x="109" y="387" type="curve" smooth="yes"/>
      <point x="129" y="409"/>
      <point x="154" y="425"/>
      <point x="183" y="425" type="curve" smooth="yes"/>
      <point x="219" y="425"/>
      <point x="245" y="402"/>
      <point x="245" y="371" type="curve" smooth="yes"/>
      <point x="245" y="337"/>
      <point x="223" y="310"/>
      <point x="175" y="271" type="curve" smooth="yes"/>
      <point x="120" y="226"/>
      <point x="87" y="179"/>
      <point x="87" y="125" type="curve" smooth="yes"/>
      <point x="87" y="59"/>
      <point x="133" y="0"/>
      <point x="222" y="0" type="curve" smooth="yes"/>
      <point x="289" y="0"/>
      <point x="337" y="25"/>
      <point x="382" y="87" type="curve"/>
      <point x="425" y="30"/>
      <point x="474" y="0"/>
      <point x="545" y="0" type="curve" smooth="yes"/>
      <point x="611" y="0"/>
      <point x="656" y="36"/>
      <point x="674" y="83" type="curve"/>
      <point x="721" y="24"/>
      <point x="772" y="0"/>
    </contour>
  </outline>
</glyph>
<glyph name="knGHE" format="1">
  <advance width="827"/>
  <outline>
    <contour>
      <point x="594" y="508" type="curve" smooth="yes"/>
      <point x="594" y="553"/>
      <point x="622" y="589"/>
      <point x="665" y="589" type="curve" smooth="yes"/>
      <point x="701" y="589"/>
      <point x="728" y="566"/>
      <point x="728" y="532" type="curve" smooth="yes"/>
      <point x="728" y="487"/>
      <point x="690" y="456"/>
      <point x="601" y="456" type="curve"/>
      <point x="598" y="470"/>
      <point x="594" y="489"/>
    </contour>
    <contour>
      <point x="383" y="246" type="curve" smooth="yes"/>
      <point x="459" y="246"/>
      <point x="498" y="297"/>
      <point x="498" y="353" type="curve" smooth="yes"/>
      <point x="498" y="371"/>
      <point x="494" y="391"/>
      <point x="484" y="410" type="curve"/>
      <point x="600" y="410" type="line" smooth="yes"/>
      <point x="741" y="410"/>
      <point x="774" y="471"/>
      <point x="774" y="532" type="curve" smooth="yes"/>
      <point x="774" y="590"/>
      <point x="731" y="635"/>
      <point x="665" y="635" type="curve" smooth="yes"/>
      <point x="598" y="635"/>
      <point x="548" y="583"/>
      <point x="548" y="508" type="curve" smooth="yes"/>
      <point x="548" y="490"/>
      <point x="551" y="471"/>
      <point x="554" y="456" type="curve"/>
      <point x="106" y="456" type="line" smooth="yes"/>
      <point x="94" y="456"/>
      <point x="83" y="445"/>
      <point x="83" y="433" type="curve" smooth="yes"/>
      <point x="83" y="421"/>
      <point x="94" y="410"/>
      <point x="106" y="410" type="curve" smooth="yes"/>
      <point x="283" y="410" type="line"/>
      <point x="272" y="390"/>
      <point x="268" y="370"/>
      <point x="268" y="352" type="curve" smooth="yes"/>
      <point x="268" y="298"/>
      <point x="309" y="246"/>
    </contour>
    <contour>
      <point x="383" y="292" type="curve" smooth="yes"/>
      <point x="341" y="292"/>
      <point x="314" y="320"/>
      <point x="314" y="352" type="curve" smooth="yes"/>
      <point x="314" y="371"/>
      <point x="321" y="392"/>
      <point x="340" y="410" type="curve"/>
      <point x="428" y="410" type="line"/>
      <point x="446" y="391"/>
      <point x="452" y="371"/>
      <point x="452" y="353" type="curve" smooth="yes"/>
      <point x="452" y="319"/>
      <point x="427" y="292"/>
    </contour>
    <contour>
      <point x="547" y="0" type="curve" smooth="yes"/>
      <point x="635" y="0"/>
      <point x="685" y="61"/>
      <point x="685" y="125" type="curve" smooth="yes"/>
      <point x="685" y="146"/>
      <point x="681" y="165"/>
      <point x="673" y="183" type="curve"/>
      <point x="675" y="183" type="line" smooth="yes"/>
      <point x="730" y="183"/>
      <point x="772" y="231"/>
      <point x="772" y="278" type="curve" smooth="yes"/>
      <point x="772" y="311"/>
      <point x="766" y="326"/>
      <point x="754" y="347" type="curve" smooth="yes"/>
      <point x="750" y="354"/>
      <point x="742" y="358"/>
      <point x="733" y="358" type="curve" smooth="yes"/>
      <point x="722" y="358"/>
      <point x="711" y="348"/>
      <point x="711" y="334" type="curve" smooth="yes"/>
      <point x="711" y="330"/>
      <point x="712" y="327"/>
      <point x="714" y="323" type="curve" smooth="yes"/>
      <point x="722" y="310"/>
      <point x="726" y="299"/>
      <point x="726" y="278" type="curve" smooth="yes"/>
      <point x="726" y="253"/>
      <point x="704" y="229"/>
      <point x="675" y="229" type="curve" smooth="yes"/>
      <point x="656" y="229"/>
      <point x="637" y="237"/>
      <point x="623" y="249" type="curve" smooth="yes"/>
      <point x="615" y="256"/>
      <point x="609" y="259"/>
      <point x="601" y="259" type="curve" smooth="yes"/>
      <point x="587" y="259"/>
      <point x="578" y="249"/>
      <point x="578" y="236" type="curve" smooth="yes"/>
      <point x="578" y="229"/>
      <point x="581" y="222"/>
      <point x="587" y="217" type="curve" smooth="yes"/>
      <point x="616" y="197"/>
      <point x="639" y="164"/>
      <point x="639" y="125" type="curve" smooth="yes"/>
      <point x="639" y="83"/>
      <point x="603" y="46"/>
      <point x="547" y="46" type="curve" smooth="yes"/>
      <point x="482" y="46"/>
      <point x="442" y="79"/>
      <point x="405" y="136" type="curve"/>
      <point x="402" y="142"/>
      <point x="393" y="147"/>
      <point x="386" y="147" type="curve" smooth="yes"/>
      <point x="381" y="147" type="line" smooth="yes"/>
      <point x="374" y="147"/>
      <point x="366" y="142"/>
      <point x="362" y="137" type="curve"/>
      <point x="321" y="76"/>
      <point x="283" y="44"/>
      <point x="222" y="44" type="curve" smooth="yes"/>
      <point x="164" y="44"/>
      <point x="126" y="75"/>
      <point x="126" y="118" type="curve" smooth="yes"/>
      <point x="126" y="156"/>
      <point x="155" y="186"/>
      <point x="202" y="193" type="curve" smooth="yes"/>
      <point x="214" y="195"/>
      <point x="222" y="205"/>
      <point x="222" y="216" type="curve" smooth="yes"/>
      <point x="222" y="228"/>
      <point x="214" y="238"/>
      <point x="200" y="238" type="curve" smooth="yes"/>
      <point x="138" y="238"/>
      <point x="80" y="186"/>
      <point x="80" y="118" type="curve" smooth="yes"/>
      <point x="80" y="55"/>
      <point x="128" y="-2"/>
      <point x="222" y="-2" type="curve" smooth="yes"/>
      <point x="289" y="-2"/>
      <point x="336" y="27"/>
      <point x="383" y="88" type="curve"/>
      <point x="426" y="31"/>
      <point x="475" y="0"/>
    </contour>
    <contour>
      <point x="407" y="-93" type="line" smooth="yes"/>
      <point x="407" y="-81"/>
      <point x="396" y="-70"/>
      <point x="384" y="-70" type="curve" smooth="yes"/>
      <point x="372" y="-70"/>
      <point x="361" y="-81"/>
      <point x="361" y="-93" type="curve" smooth="yes"/>
      <point x="361" y="-196" type="line" smooth="yes"/>
      <point x="361" y="-208"/>
      <point x="372" y="-219"/>
      <point x="384" y="-219" type="curve" smooth="yes"/>
      <point x="396" y="-219"/>
      <point x="407" y="-208"/>
      <point x="407" y="-196" type="curve" smooth="yes"/>
    </contour>
  </outline>
</glyph>
<glyph name="knJI" format="1">
  <advance width="742"/>
  <outline>
    <contour>
      <point x="494" y="469" type="curve" smooth="yes"/>
      <point x="460" y="469"/>
      <point x="432" y="492"/>
      <point x="432" y="526" type="curve" smooth="yes"/>
      <point x="432" y="560"/>
      <point x="459" y="588"/>
      <point x="500" y="588" type="curve" smooth="yes"/>
      <point x="541" y="588"/>
      <point x="573" y="559"/>
      <point x="588" y="521" type="curve"/>
      <point x="559" y="485"/>
      <point x="531" y="469"/>
    </contour>
    <contour>
      <point x="683" y="130" type="curve" smooth="yes"/>
      <point x="683" y="180"/>
      <point x="665" y="221"/>
      <point x="630" y="251" type="curve" smooth="yes"/>
      <point x="626" y="255"/>
      <point x="621" y="257"/>
      <point x="616" y="257" type="curve" smooth="yes"/>
      <point x="601" y="257"/>
      <point x="592" y="246"/>
      <point x="592" y="235" type="curve" smooth="yes"/>
      <point x="592" y="228"/>
      <point x="595" y="221"/>
      <point x="600" y="217" type="curve" smooth="yes"/>
      <point x="625" y="195"/>
      <point x="637" y="166"/>
      <point x="637" y="130" type="curve" smooth="yes"/>
      <point x="637" y="84"/>
      <point x="602" y="46"/>
      <point x="545" y="46" type="curve" smooth="yes"/>
      <point x="480" y="46"/>
      <point x="439" y="79"/>
      <point x="403" y="136" type="curve" smooth="yes"/>
      <point x="399" y="142"/>
      <point x="391" y="147"/>
      <point x="384" y="147" type="curve" smooth="yes"/>
      <point x="379" y="147" type="line" smooth="yes"/>
      <point x="372" y="147"/>
      <point x="363" y="142"/>
      <point x="359" y="136" type="curve" smooth="yes"/>
      <point x="320" y="73"/>
      <point x="281" y="46"/>
      <point x="222" y="46" type="curve" smooth="yes"/>
      <point x="165" y="46"/>
      <point x="133" y="81"/>
      <point x="133" y="125" type="curve" smooth="yes"/>
      <point x="133" y="167"/>
      <point x="162" y="202"/>
      <point x="203" y="235" type="curve" smooth="yes"/>
      <point x="258" y="279"/>
      <point x="282" y="313"/>
      <point x="289" y="349" type="curve"/>
      <point x="346" y="300"/>
      <point x="400" y="276"/>
      <point x="465" y="276" type="curve" smooth="yes"/>
      <point x="579" y="276"/>
      <point x="645" y="366"/>
      <point x="645" y="469" type="curve" smooth="yes"/>
      <point x="645" y="553"/>
      <point x="581" y="634"/>
      <point x="500" y="634" type="curve" smooth="yes"/>
      <point x="429" y="634"/>
      <point x="386" y="582"/>
      <point x="386" y="526" type="curve" smooth="yes"/>
      <point x="386" y="468"/>
      <point x="432" y="423"/>
      <point x="494" y="423" type="curve" smooth="yes"/>
      <point x="534" y="423"/>
      <point x="567" y="435"/>
      <point x="599" y="465" type="curve"/>
      <point x="599" y="392"/>
      <point x="551" y="322"/>
      <point x="465" y="322" type="curve" smooth="yes"/>
      <point x="394" y="322"/>
      <point x="337" y="360"/>
      <point x="274" y="428" type="curve"/>
      <point x="256" y="454"/>
      <point x="225" y="471"/>
      <point x="183" y="471" type="curve" smooth="yes"/>
      <point x="140" y="471"/>
      <point x="105" y="451"/>
      <point x="75" y="417" type="curve" smooth="yes"/>
      <point x="71" y="413"/>
      <point x="69" y="407"/>
      <point x="69" y="402" type="curve" smooth="yes"/>
      <point x="69" y="389"/>
      <point x="79" y="379"/>
      <point x="92" y="379" type="curve" smooth="yes"/>
      <point x="99" y="379"/>
      <point x="105" y="382"/>
      <point x="109" y="387" type="curve" smooth="yes"/>
      <point x="129" y="409"/>
      <point x="154" y="425"/>
      <point x="183" y="425" type="curve" smooth="yes"/>
      <point x="219" y="425"/>
      <point x="245" y="402"/>
      <point x="245" y="371" type="curve" smooth="yes"/>
      <point x="245" y="337"/>
      <point x="223" y="310"/>
      <point x="175" y="271" type="curve" smooth="yes"/>
      <point x="120" y="226"/>
      <point x="87" y="179"/>
      <point x="87" y="125" type="curve" smooth="yes"/>
      <point x="87" y="59"/>
      <point x="133" y="0"/>
      <point x="222" y="0" type="curve" smooth="yes"/>
      <point x="289" y="0"/>
      <point x="337" y="25"/>
      <point x="382" y="87" type="curve"/>
      <point x="425" y="30"/>
      <point x="474" y="0"/>
      <point x="545" y="0" type="curve" smooth="yes"/>
      <point x="632" y="0"/>
      <point x="683" y="60"/>
    </contour>
  </outline>
</glyph>
<glyph name="knKAA" format="1">
  <advance width="988"/>
  <outline>
    <contour>
      <point x="351" y="38" type="curve" smooth="yes"/>
      <point x="249" y="38"/>
      <point x="208" y="92"/>
      <point x="208" y="147" type="curve" smooth="yes"/>
      <point x="208" y="205"/>
      <point x="259" y="249"/>
      <point x="327" y="255" type="curve"/>
      <point x="382" y="255" type="line"/>
      <point x="457" y="245"/>
      <point x="496" y="196"/>
      <point x="496" y="147" type="curve" smooth="yes"/>
      <point x="496" y="93"/>
      <point x="455" y="38"/>
    </contour>
    <contour>
      <point x="351" y="-8" type="curve" smooth="yes"/>
      <point x="499" y="-8"/>
      <point x="542" y="75"/>
      <point x="542" y="147" type="curve" smooth="yes"/>
      <point x="542" y="187"/>
      <point x="525" y="226"/>
      <point x="493" y="255" type="curve"/>
      <point x="607" y="255" type="line" smooth="yes"/>
      <point x="619" y="255"/>
      <point x="630" y="266"/>
      <point x="630" y="278" type="curve" smooth="yes"/>
      <point x="630" y="290"/>
      <point x="619" y="301"/>
      <point x="607" y="301" type="curve" smooth="yes"/>
      <point x="375" y="301" type="line"/>
      <point x="375" y="410" type="line"/>
      <point x="647" y="410" type="line" smooth="yes"/>
      <point x="763" y="410"/>
      <point x="851" y="342"/>
      <point x="871" y="221" type="curve"/>
      <point x="851" y="226"/>
      <point x="829" y="229"/>
      <point x="809" y="229" type="curve" smooth="yes"/>
      <point x="718" y="229"/>
      <point x="676" y="171"/>
      <point x="676" y="106" type="curve" smooth="yes"/>
      <point x="676" y="48"/>
      <point x="717" y="-4"/>
      <point x="788" y="-4" type="curve" smooth="yes"/>
      <point x="861" y="-4"/>
      <point x="921" y="55"/>
      <point x="921" y="167" type="curve" smooth="yes"/>
      <point x="921" y="353"/>
      <point x="806" y="456"/>
      <point x="647" y="456" type="curve" smooth="yes"/>
      <point x="98" y="456" type="line" smooth="yes"/>
      <point x="86" y="456"/>
      <point x="75" y="445"/>
      <point x="75" y="433" type="curve" smooth="yes"/>
      <point x="75" y="421"/>
      <point x="86" y="410"/>
      <point x="98" y="410" type="curve" smooth="yes"/>
      <point x="329" y="410" type="line"/>
      <point x="329" y="301" type="line"/>
      <point x="94" y="301" type="line" smooth="yes"/>
      <point x="82" y="301"/>
      <point x="71" y="290"/>
      <point x="71" y="278" type="curve" smooth="yes"/>
      <point x="71" y="266"/>
      <point x="82" y="255"/>
      <point x="94" y="255" type="curve" smooth="yes"/>
      <point x="210" y="255" type="line"/>
      <point x="179" y="226"/>
      <point x="162" y="188"/>
      <point x="162" y="147" type="curve" smooth="yes"/>
      <point x="162" y="74"/>
      <point x="207" y="-8"/>
    </contour>
    <contour>
      <point x="788" y="42" type="curve" smooth="yes"/>
      <point x="747" y="42"/>
      <point x="722" y="72"/>
      <point x="722" y="106" type="curve" smooth="yes"/>
      <point x="722" y="149"/>
      <point x="752" y="183"/>
      <point x="809" y="183" type="curve" smooth="yes"/>
      <point x="832" y="183"/>
      <point x="855" y="178"/>
      <point x="875" y="172" type="curve"/>
      <point x="875" y="167" type="line" smooth="yes"/>
      <point x="875" y="93"/>
      <point x="841" y="42"/>
    </contour>
  </outline>
</glyph>
<glyph name="knNAU" format="1">
  <advance width="963"/>
  <outline>
    <contour>
      <point x="760" y="247" type="curve" smooth="yes"/>
      <point x="721" y="247"/>
      <point x="694" y="274"/>
      <point x="694" y="308" type="curve" smooth="yes"/>
      <point x="694" y="351"/>
      <point x="724" y="385"/>
      <point x="781" y="385" type="curve" smooth="yes"/>
      <point x="804" y="385"/>
      <point x="827" y="380"/>
      <point x="847" y="374" type="curve"/>
      <point x="847" y="367"/>
      <point x="847" y="367"/>
      <point x="847" y="367" type="curve"/>
      <point x="847" y="297"/>
      <point x="813" y="247"/>
    </contour>
    <contour>
      <point x="138" y="13" type="curve" smooth="yes"/>
      <point x="138" y="81"/>
      <point x="147" y="136"/>
      <point x="172" y="162" type="curve" smooth="yes"/>
      <point x="183" y="173"/>
      <point x="199" y="182"/>
      <point x="220" y="182" type="curve" smooth="yes"/>
      <point x="253" y="182"/>
      <point x="288" y="161"/>
      <point x="318" y="110" type="curve" smooth="yes"/>
      <point x="361" y="39"/>
      <point x="396" y="0"/>
      <point x="463" y="0" type="curve" smooth="yes"/>
      <point x="523" y="0"/>
      <point x="597" y="45"/>
      <point x="597" y="168" type="curve" smooth="yes"/>
      <point x="597" y="255"/>
      <point x="542" y="343"/>
      <point x="459" y="411" type="curve"/>
      <point x="550" y="421"/>
      <point x="608" y="477"/>
      <point x="613" y="581" type="curve"/>
      <point x="619" y="581" type="line" smooth="yes"/>
      <point x="733" y="581"/>
      <point x="820" y="532"/>
      <point x="842" y="424" type="curve"/>
      <point x="822" y="428"/>
      <point x="801" y="431"/>
      <point x="781" y="431" type="curve" smooth="yes"/>
      <point x="690" y="431"/>
      <point x="648" y="373"/>
      <point x="648" y="308" type="curve" smooth="yes"/>
      <point x="648" y="250"/>
      <point x="691" y="201"/>
      <point x="760" y="201" type="curve" smooth="yes"/>
      <point x="833" y="201"/>
      <point x="893" y="259"/>
      <point x="893" y="367" type="curve" smooth="yes"/>
      <point x="893" y="545"/>
      <point x="779" y="627"/>
      <point x="619" y="627" type="curve" smooth="yes"/>
      <point x="395" y="627" type="line" smooth="yes"/>
      <point x="383" y="627"/>
      <point x="372" y="616"/>
      <point x="372" y="604" type="curve" smooth="yes"/>
      <point x="372" y="592"/>
      <point x="383" y="581"/>
      <point x="395" y="581" type="curve" smooth="yes"/>
      <point x="567" y="581" type="line"/>
      <point x="561" y="499"/>
      <point x="510" y="456"/>
      <point x="431" y="456" type="curve" smooth="yes"/>
      <point x="106" y="456" type="line" smooth="yes"/>
      <point x="94" y="456"/>
      <point x="83" y="445"/>
      <point x="83" y="433" type="curve" smooth="yes"/>
      <point x="83" y="421"/>
      <point x="94" y="410"/>
      <point x="106" y="410" type="curve" smooth="yes"/>
      <point x="382" y="410" type="line"/>
      <point x="478" y="349"/>
      <point x="551" y="259"/>
      <point x="551" y="168" type="curve" smooth="yes"/>
      <point x="551" y="87"/>
      <point x="507" y="46"/>
      <point x="463" y="46" type="curve" smooth="yes"/>
      <point x="412" y="46"/>
      <point x="389" y="83"/>
      <point x="358" y="134" type="curve" smooth="yes"/>
      <point x="314" y="205"/>
      <point x="265" y="228"/>
      <point x="220" y="228" type="curve" smooth="yes"/>
      <point x="185" y="228"/>
      <point x="159" y="213"/>
      <point x="140" y="194" type="curve" smooth="yes"/>
      <point x="109" y="164"/>
      <point x="92" y="99"/>
      <point x="92" y="13" type="curve" smooth="yes"/>
      <point x="92" y="1"/>
      <point x="103" y="-10"/>
      <point x="115" y="-10" type="curve" smooth="yes"/>
      <point x="127" y="-10"/>
      <point x="138" y="1"/>
    </contour>
  </outline>
</glyph>
<glyph name="nya-kannada.base" format="1">
  <advance width="901"/>
  <outline>
    <contour>
      <point x="571" y="-46" type="curve" smooth="yes"/>
      <point x="585" y="-46"/>
      <point x="594" y="-34"/>
      <point x="594" y="-23" type="curve" smooth="yes"/>
      <point x="594" y="-19"/>
      <point x="590" y="-6"/>
      <point x="583" y="12" type="curve" smooth="yes"/>
      <point x="570" y="45"/>
      <point x="555" y="74"/>
      <point x="537" y="100" type="curve"/>
      <point x="605" y="162"/>
      <point x="647" y="246"/>
      <point x="647" y="312" type="curve" smooth="yes"/>
      <point x="647" y="318"/>
      <point x="647" y="325"/>
      <point x="646" y="330" type="curve"/>
      <point x="671" y="372"/>
      <point x="705" y="410"/>
      <point x="752" y="410" type="curve" smooth="yes"/>
      <point x="801" y="410"/>
      <point x="819" y="374"/>
      <point x="819" y="346" type="curve" smooth="yes"/>
      <point x="819" y="316"/>
      <point x="808" y="289"/>
      <point x="795" y="263" type="curve" smooth="yes"/>
      <point x="793" y="258"/>
      <point x="792" y="254"/>
      <point x="792" y="251" type="curve" smooth="yes"/>
      <point x="792" y="239"/>
      <point x="804" y="228"/>
      <point x="815" y="228" type="curve" smooth="yes"/>
      <point x="824" y="228"/>
      <point x="832" y="233"/>
      <point x="836" y="241" type="curve" smooth="yes"/>
      <point x="852" y="275"/>
      <point x="865" y="310"/>
      <point x="865" y="346" type="curve" smooth="yes"/>
      <point x="865" y="367"/>
      <point x="859" y="390"/>
      <point x="846" y="410" type="curve"/>
      <point x="875" y="410" type="line" smooth="yes"/>
      <point x="887" y="410"/>
      <point x="898" y="421"/>
      <point x="898" y="433" type="curve" smooth="yes"/>
      <point x="898" y="445"/>
      <point x="887" y="456"/>
      <point x="875" y="456" type="curve" smooth="yes"/>
      <point x="754" y="456" type="line" smooth="yes"/>
      <point x="707" y="456"/>
      <point x="665" y="432"/>
      <point x="631" y="390" type="curve"/>
      <point x="608" y="436"/>
      <point x="563" y="462"/>
      <point x="508" y="462" type="curve" smooth="yes"/>
      <point x="442" y="462"/>
      <point x="397" y="426"/>
      <point x="358" y="366" type="curve"/>
      <point x="318" y="425"/>
      <point x="268" y="463"/>
      <point x="199" y="463" type="curve" smooth="yes"/>
      <point x="116" y="463"/>
      <point x="65" y="402"/>
      <point x="65" y="328" type="curve" smooth="yes"/>
      <point x="65" y="300"/>
      <point x="73" y="272"/>
      <point x="91" y="242" type="curve" smooth="yes"/>
      <point x="96" y="235"/>
      <point x="103" y="231"/>
      <point x="111" y="231" type="curve" smooth="yes"/>
      <point x="125" y="231"/>
      <point x="134" y="242"/>
      <point x="134" y="254" type="curve" smooth="yes"/>
      <point x="134" y="258"/>
      <point x="133" y="262"/>
      <point x="131" y="266" type="curve" smooth="yes"/>
      <point x="117" y="288"/>
      <point x="111" y="308"/>
      <point x="111" y="328" type="curve" smooth="yes"/>
      <point x="111" y="376"/>
      <point x="144" y="417"/>
      <point x="199" y="417" type="curve" smooth="yes"/>
      <point x="263" y="417"/>
      <point x="303" y="373"/>
      <point x="335" y="315" type="curve"/>
      <point x="338" y="308"/>
      <point x="348" y="303"/>
      <point x="355" y="303" type="curve" smooth="yes"/>
      <point x="360" y="303" type="line" smooth="yes"/>
      <point x="367" y="303"/>
      <point x="376" y="308"/>
      <point x="380" y="315" type="curve" smooth="yes"/>
      <point x="414" y="373"/>
      <point x="448" y="416"/>
      <point x="508" y="416" type="curve" smooth="yes"/>
      <point x="565" y="416"/>
      <point x="601" y="375"/>
      <point x="601" y="312" type="curve" smooth="yes"/>
      <point x="601" y="257"/>
      <point x="566" y="187"/>
      <point x="509" y="136" type="curve"/>
      <point x="460" y="192"/>
      <point x="398" y="225"/>
      <point x="335" y="225" type="curve" smooth="yes"/>
      <point x="242" y="225"/>
      <point x="207" y="167"/>
      <point x="207" y="122" type="curve" smooth="yes"/>
      <point x="207" y="76"/>
      <point x="242" y="20"/>
      <point x="336" y="20" type="curve" smooth="yes"/>
      <point x="398" y="20"/>
      <point x="454" y="41"/>
      <point x="500" y="72" type="curve"/>
      <point x="519" y="43"/>
      <point x="536" y="9"/>
      <point x="549" y="-30" type="curve" smooth="yes"/>
      <point x="552" y="-40"/>
      <point x="562" y="-46"/>
    </contour>
    <contour>
      <point x="336" y="66" type="curve" smooth="yes"/>
      <point x="284" y="66"/>
      <point x="253" y="92"/>
      <point x="253" y="122" type="curve" smooth="yes"/>
      <point x="253" y="151"/>
      <point x="284" y="179"/>
      <point x="335" y="179" type="curve" smooth="yes"/>
      <point x="385" y="179"/>
      <point x="433" y="154"/>
      <point x="473" y="108" type="curve"/>
      <point x="434" y="83"/>
      <point x="387" y="66"/>
    </contour>
  </outline>
</glyph>
<glyph name="sh-kannada" format="1">
  <advance width="897"/>
  <outline>
    <contour>
      <point x="506" y="70" type="curve" smooth="yes"/>
      <point x="538" y="102"/>
      <point x="561" y="144"/>
      <point x="561" y="197" type="curve" smooth="yes"/>
      <point x="561" y="266"/>
      <point x="525" y="348"/>
      <point x="441" y="410" type="curve"/>
      <point x="639" y="410" type="line"/>
      <point x="632" y="387"/>
      <point x="630" y="365"/>
      <point x="630" y="345" type="curve" smooth="yes"/>
      <point x="630" y="270"/>
      <point x="685" y="223"/>
      <point x="747" y="223" type="curve" smooth="yes"/>
      <point x="811" y="223"/>
      <point x="856" y="265"/>
      <point x="856" y="333" type="curve" smooth="yes"/>
      <point x="856" y="389"/>
      <point x="818" y="453"/>
      <point x="716" y="456" type="curve"/>
      <point x="737" y="482"/>
      <point x="768" y="508"/>
      <point x="812" y="532" type="curve" smooth="yes"/>
      <point x="820" y="536"/>
      <point x="824" y="544"/>
      <point x="824" y="552" type="curve" smooth="yes"/>
      <point x="824" y="566"/>
      <point x="812" y="575"/>
      <point x="801" y="575" type="curve" smooth="yes"/>
      <point x="797" y="575"/>
      <point x="793" y="574"/>
      <point x="790" y="572" type="curve" smooth="yes"/>
      <point x="723" y="536"/>
      <point x="683" y="495"/>
      <point x="659" y="456" type="curve"/>
      <point x="89" y="456" type="line" smooth="yes"/>
      <point x="77" y="456"/>
      <point x="66" y="445"/>
      <point x="66" y="433" type="curve" smooth="yes"/>
      <point x="66" y="421"/>
      <point x="77" y="410"/>
      <point x="89" y="410" type="curve" smooth="yes"/>
      <point x="197" y="410" type="line"/>
      <point x="181" y="396"/>
      <point x="168" y="377"/>
      <point x="158" y="354" type="curve" smooth="yes"/>
      <point x="157" y="351"/>
      <point x="156" y="348"/>
      <point x="156" y="345" type="curve" smooth="yes"/>
      <point x="156" y="333"/>
      <point x="167" y="322"/>
      <point x="179" y="322" type="curve" smooth="yes"/>
      <point x="188" y="322"/>
      <point x="196" y="327"/>
      <point x="200" y="336" type="curve" smooth="yes"/>
      <point x="216" y="371"/>
      <point x="242" y="396"/>
      <point x="274" y="396" type="curve" smooth="yes"/>
      <point x="308" y="396"/>
      <point x="339" y="370"/>
      <point x="339" y="331" type="curve" smooth="yes"/>
      <point x="339" y="287"/>
      <point x="311" y="255"/>
      <point x="253" y="249" type="curve" smooth="yes"/>
      <point x="157" y="239"/>
      <point x="128" y="221"/>
      <point x="109" y="202" type="curve" smooth="yes"/>
      <point x="90" y="183"/>
      <point x="79" y="158"/>
      <point x="79" y="126" type="curve" smooth="yes"/>
      <point x="79" y="73"/>
      <point x="112" y="0"/>
      <point x="294" y="0" type="curve" smooth="yes"/>
      <point x="405" y="0"/>
      <point x="478" y="42"/>
    </contour>
    <contour>
      <point x="747" y="269" type="curve" smooth="yes"/>
      <point x="709" y="269"/>
      <point x="676" y="300"/>
      <point x="676" y="345" type="curve" smooth="yes"/>
      <point x="676" y="365"/>
      <point x="679" y="387"/>
      <point x="689" y="410" type="curve"/>
      <point x="708" y="410" type="line" smooth="yes"/>
      <point x="776" y="410"/>
      <point x="810" y="372"/>
      <point x="810" y="333" type="curve" smooth="yes"/>
      <point x="810" y="293"/>
      <point x="785" y="269"/>
    </contour>
    <contour>
      <point x="294" y="46" type="curve" smooth="yes"/>
      <point x="178" y="46"/>
      <point x="125" y="85"/>
      <point x="125" y="126" type="curve" smooth="yes"/>
      <point x="125" y="144"/>
      <point x="130" y="159"/>
      <point x="141" y="170" type="curve" smooth="yes"/>
      <point x="156" y="185"/>
      <point x="183" y="195"/>
      <point x="259" y="203" type="curve" smooth="yes"/>
      <point x="347" y="213"/>
      <point x="385" y="265"/>
      <point x="385" y="331" type="curve" smooth="yes"/>
      <point x="385" y="362"/>
      <point x="373" y="389"/>
      <point x="355" y="408" type="curve"/>
      <point x="464" y="356"/>
      <point x="515" y="270"/>
      <point x="515" y="197" type="curve" smooth="yes"/>
      <point x="515" y="158"/>
      <point x="498" y="126"/>
      <point x="474" y="102" type="curve" smooth="yes"/>
      <point x="450" y="78"/>
      <point x="387" y="46"/>
    </contour>
  </outline>
</glyph>
<glyph name="tildecomb.cap" format="1">
  <advance width="0"/>
  <outline>
    <contour>
      <point x="-149" y="684" type="curve" smooth="yes"/>
      <point x="-152" y="680"/>
      <point x="-154" y="675"/>
      <point x="-154" y="670" type="curve" smooth="yes"/>
      <point x="-154" y="658"/>
      <point x="-144" y="648"/>
      <point x="-132" y="648" type="curve" smooth="yes"/>
      <point x="-125" y="648"/>
      <point x="-119" y="651"/>
      <point x="-115" y="656" type="curve" smooth="yes"/>
      <point x="-98" y="678"/>
      <point x="-82" y="695"/>
      <point x="-64" y="695" type="curve" smooth="yes"/>
      <point x="-47" y="695"/>
      <point x="-34" y="684"/>
      <point x="-18" y="672" type="curve" smooth="yes"/>
      <point x="6" y="654"/>
      <point x="29" y="642"/>
      <point x="53" y="642" type="curve" smooth="yes"/>
      <point x="87" y="642"/>
      <point x="113" y="661"/>
      <point x="145" y="703" type="curve" smooth="yes"/>
      <point x="148" y="707"/>
      <point x="150" y="711"/>
      <point x="150" y="716" type="curve" smooth="yes"/>
      <point x="150" y="727"/>
      <point x="141" y="738"/>
      <point x="128" y="738" type="curve" smooth="yes"/>
      <point x="122" y="738"/>
      <point x="115" y="735"/>
      <point x="111" y="729" type="curve" smooth="yes"/>
      <point x="91" y="703"/>
      <point x="75" y="686"/>
      <point x="53" y="686" type="curve" smooth="yes"/>
      <point x="37" y="686"/>
      <point x="24" y="696"/>
      <point x="8" y="708" type="curve" smooth="yes"/>
      <point x="-16" y="726"/>
      <point x="-39" y="739"/>
      <point x="-64" y="739" type="curve" smooth="yes"/>
      <point x="-92" y="739"/>
      <point x="-120" y="720"/>
    </contour>
  </outline>
</glyph>
